<svg xmlns="http://www.w3.org/2000/svg" xmlns:xlink="http://www.w3.org/1999/xlink" contentStyleType="text/css" data-diagram-type="CLASS" height="481px" preserveAspectRatio="none" style="width:703px;height:481px;background:#FFFFFF;" version="1.1" viewBox="0 0 703 481" width="703px" zoomAndPan="magnify"><defs/><g><!--cluster transport (HTTP)--><g class="cluster" data-entity="transport .HTTP." data-source-line="1" data-uid="ent0002" id="cluster_transport .HTTP."><path d="M26.5,6 L160.8281,6 A3.75,3.75 0 0 1 163.3281,8.5 L170.3281,28.2969 L515.5,28.2969 A2.5,2.5 0 0 1 518,30.7969 L518,102.5 A2.5,2.5 0 0 1 515.5,105 L26.5,105 A2.5,2.5 0 0 1 24,102.5 L24,8.5 A2.5,2.5 0 0 1 26.5,6" fill="none" style="stroke:#000000;stroke-width:1.5;"/><line style="stroke:#000000;stroke-width:1.5;" x1="24" x2="170.3281" y1="28.2969" y2="28.2969"/><text fill="#000000" font-family="sans-serif" font-size="14" font-weight="bold" lengthAdjust="spacing" textLength="133.3281" x="28" y="20.9951">transport (HTTP)</text></g><!--cluster services (business)--><g class="cluster" data-entity="services .business." data-source-line="7" data-uid="ent0006" id="cluster_services .business."><path d="M31.5,129 L184.2031,129 A3.75,3.75 0 0 1 186.7031,131.5 L193.7031,151.2969 L510.5,151.2969 A2.5,2.5 0 0 1 513,153.7969 L513,225.5 A2.5,2.5 0 0 1 510.5,228 L31.5,228 A2.5,2.5 0 0 1 29,225.5 L29,131.5 A2.5,2.5 0 0 1 31.5,129" fill="none" style="stroke:#000000;stroke-width:1.5;"/><line style="stroke:#000000;stroke-width:1.5;" x1="29" x2="193.7031" y1="151.2969" y2="151.2969"/><text fill="#000000" font-family="sans-serif" font-size="14" font-weight="bold" lengthAdjust="spacing" textLength="151.7031" x="33" y="143.9951">services (business)</text></g><!--cluster repository (data access)--><g class="cluster" data-entity="repository .data access." data-source-line="13" data-uid="ent0010" id="cluster_repository .data access."><path d="M8.5,252 L201.3711,252 A3.75,3.75 0 0 1 203.8711,254.5 L210.8711,274.2969 L557.5,274.2969 A2.5,2.5 0 0 1 560,276.7969 L560,348.5 A2.5,2.5 0 0 1 557.5,351 L8.5,351 A2.5,2.5 0 0 1 6,348.5 L6,254.5 A2.5,2.5 0 0 1 8.5,252" fill="none" style="stroke:#000000;stroke-width:1.5;"/><line style="stroke:#000000;stroke-width:1.5;" x1="6" x2="210.8711" y1="274.2969" y2="274.2969"/><text fill="#000000" font-family="sans-serif" font-size="14" font-weight="bold" lengthAdjust="spacing" textLength="191.8711" x="10" y="266.9951">repository (data access)</text></g><!--cluster models--><g class="cluster" data-entity="models" data-source-line="19" data-uid="ent0014" id="cluster_models"><path d="M121.5,375 L179.3545,375 A3.75,3.75 0 0 1 181.8545,377.5 L188.8545,397.2969 L693.5,397.2969 A2.5,2.5 0 0 1 696,399.7969 L696,471.5 A2.5,2.5 0 0 1 693.5,474 L121.5,474 A2.5,2.5 0 0 1 119,471.5 L119,377.5 A2.5,2.5 0 0 1 121.5,375" fill="none" style="stroke:#000000;stroke-width:1.5;"/><line style="stroke:#000000;stroke-width:1.5;" x1="119" x2="188.8545" y1="397.2969" y2="397.2969"/><text fill="#000000" font-family="sans-serif" font-size="14" font-weight="bold" lengthAdjust="spacing" textLength="56.8545" x="123" y="389.9951">models</text></g><!--class GroupHandler--><g class="entity" data-entity="GroupHandler" data-source-line="2" data-uid="ent0003" id="entity_GroupHandler"><rect fill="#F1F1F1" height="48" rx="2.5" ry="2.5" style="stroke:#181818;stroke-width:0.5;" width="130.0547" x="39.97" y="41"/><ellipse cx="54.97" cy="57" fill="#ADD1B2" rx="11" ry="11" style="stroke:#181818;stroke-width:1;"/><path d="M57.9388,62.6406 Q57.3606,62.9375 56.72,63.0781 Q56.0794,63.2344 55.3763,63.2344 Q52.8763,63.2344 51.5481,61.5938 Q50.2356,59.9375 50.2356,56.8125 Q50.2356,53.6875 51.5481,52.0313 Q52.8763,50.375 55.3763,50.375 Q56.0794,50.375 56.72,50.5313 Q57.3763,50.6875 57.9388,50.9844 L57.9388,53.7031 Q57.3138,53.125 56.72,52.8594 Q56.1263,52.5781 55.5013,52.5781 Q54.1575,52.5781 53.47,53.6563 Q52.7825,54.7188 52.7825,56.8125 Q52.7825,58.9063 53.47,59.9844 Q54.1575,61.0469 55.5013,61.0469 Q56.1263,61.0469 56.72,60.7813 Q57.3138,60.5 57.9388,59.9219 L57.9388,62.6406 Z " fill="#000000"/><text fill="#000000" font-family="sans-serif" font-size="14" lengthAdjust="spacing" textLength="98.0547" x="68.97" y="61.8467">GroupHandler</text><line style="stroke:#181818;stroke-width:0.5;" x1="40.97" x2="169.0247" y1="73" y2="73"/><line style="stroke:#181818;stroke-width:0.5;" x1="40.97" x2="169.0247" y1="81" y2="81"/></g><!--class StudentHandler--><g class="entity" data-entity="StudentHandler" data-source-line="3" data-uid="ent0004" id="entity_StudentHandler"><rect fill="#F1F1F1" height="48" rx="2.5" ry="2.5" style="stroke:#181818;stroke-width:0.5;" width="142.2363" x="204.88" y="41"/><ellipse cx="219.88" cy="57" fill="#ADD1B2" rx="11" ry="11" style="stroke:#181818;stroke-width:1;"/><path d="M222.8488,62.6406 Q222.2706,62.9375 221.63,63.0781 Q220.9894,63.2344 220.2863,63.2344 Q217.7863,63.2344 216.4581,61.5938 Q215.1456,59.9375 215.1456,56.8125 Q215.1456,53.6875 216.4581,52.0313 Q217.7863,50.375 220.2863,50.375 Q220.9894,50.375 221.63,50.5313 Q222.2863,50.6875 222.8488,50.9844 L222.8488,53.7031 Q222.2238,53.125 221.63,52.8594 Q221.0363,52.5781 220.4113,52.5781 Q219.0675,52.5781 218.38,53.6563 Q217.6925,54.7188 217.6925,56.8125 Q217.6925,58.9063 218.38,59.9844 Q219.0675,61.0469 220.4113,61.0469 Q221.0363,61.0469 221.63,60.7813 Q222.2238,60.5 222.8488,59.9219 L222.8488,62.6406 Z " fill="#000000"/><text fill="#000000" font-family="sans-serif" font-size="14" lengthAdjust="spacing" textLength="110.2363" x="233.88" y="61.8467">StudentHandler</text><line style="stroke:#181818;stroke-width:0.5;" x1="205.88" x2="346.1163" y1="73" y2="73"/><line style="stroke:#181818;stroke-width:0.5;" x1="205.88" x2="346.1163" y1="81" y2="81"/></g><!--class NoteHandler--><g class="entity" data-entity="NoteHandler" data-source-line="4" data-uid="ent0005" id="entity_NoteHandler"><rect fill="#F1F1F1" height="48" rx="2.5" ry="2.5" style="stroke:#181818;stroke-width:0.5;" width="120.2656" x="381.87" y="41"/><ellipse cx="396.87" cy="57" fill="#ADD1B2" rx="11" ry="11" style="stroke:#181818;stroke-width:1;"/><path d="M399.8388,62.6406 Q399.2606,62.9375 398.62,63.0781 Q397.9794,63.2344 397.2763,63.2344 Q394.7763,63.2344 393.4481,61.5938 Q392.1356,59.9375 392.1356,56.8125 Q392.1356,53.6875 393.4481,52.0313 Q394.7763,50.375 397.2763,50.375 Q397.9794,50.375 398.62,50.5313 Q399.2763,50.6875 399.8388,50.9844 L399.8388,53.7031 Q399.2138,53.125 398.62,52.8594 Q398.0263,52.5781 397.4013,52.5781 Q396.0575,52.5781 395.37,53.6563 Q394.6825,54.7188 394.6825,56.8125 Q394.6825,58.9063 395.37,59.9844 Q396.0575,61.0469 397.4013,61.0469 Q398.0263,61.0469 398.62,60.7813 Q399.2138,60.5 399.8388,59.9219 L399.8388,62.6406 Z " fill="#000000"/><text fill="#000000" font-family="sans-serif" font-size="14" lengthAdjust="spacing" textLength="88.2656" x="410.87" y="61.8467">NoteHandler</text><line style="stroke:#181818;stroke-width:0.5;" x1="382.87" x2="501.1356" y1="73" y2="73"/><line style="stroke:#181818;stroke-width:0.5;" x1="382.87" x2="501.1356" y1="81" y2="81"/></g><!--class GroupService--><g class="entity" data-entity="GroupService" data-source-line="8" data-uid="ent0007" id="entity_GroupService"><rect fill="#F1F1F1" height="48" rx="2.5" ry="2.5" style="stroke:#181818;stroke-width:0.5;" width="126.6709" x="44.66" y="164"/><ellipse cx="59.66" cy="180" fill="#B4A7E5" rx="11" ry="11" style="stroke:#181818;stroke-width:1;"/><path d="M55.5819,175.7656 L55.5819,173.6094 L62.9725,173.6094 L62.9725,175.7656 L60.5038,175.7656 L60.5038,183.8438 L62.9725,183.8438 L62.9725,186 L55.5819,186 L55.5819,183.8438 L58.0506,183.8438 L58.0506,175.7656 L55.5819,175.7656 Z " fill="#000000"/><text fill="#000000" font-family="sans-serif" font-size="14" font-style="italic" lengthAdjust="spacing" textLength="94.6709" x="73.66" y="184.8467">GroupService</text><line style="stroke:#181818;stroke-width:0.5;" x1="45.66" x2="170.3309" y1="196" y2="196"/><line style="stroke:#181818;stroke-width:0.5;" x1="45.66" x2="170.3309" y1="204" y2="204"/></g><!--class StudentService--><g class="entity" data-entity="StudentService" data-source-line="9" data-uid="ent0008" id="entity_StudentService"><rect fill="#F1F1F1" height="48" rx="2.5" ry="2.5" style="stroke:#181818;stroke-width:0.5;" width="138.8525" x="206.57" y="164"/><ellipse cx="221.57" cy="180" fill="#B4A7E5" rx="11" ry="11" style="stroke:#181818;stroke-width:1;"/><path d="M217.4919,175.7656 L217.4919,173.6094 L224.8825,173.6094 L224.8825,175.7656 L222.4138,175.7656 L222.4138,183.8438 L224.8825,183.8438 L224.8825,186 L217.4919,186 L217.4919,183.8438 L219.9606,183.8438 L219.9606,175.7656 L217.4919,175.7656 Z " fill="#000000"/><text fill="#000000" font-family="sans-serif" font-size="14" font-style="italic" lengthAdjust="spacing" textLength="106.8525" x="235.57" y="184.8467">StudentService</text><line style="stroke:#181818;stroke-width:0.5;" x1="207.57" x2="344.4225" y1="196" y2="196"/><line style="stroke:#181818;stroke-width:0.5;" x1="207.57" x2="344.4225" y1="204" y2="204"/></g><!--class NoteService--><g class="entity" data-entity="NoteService" data-source-line="10" data-uid="ent0009" id="entity_NoteService"><rect fill="#F1F1F1" height="48" rx="2.5" ry="2.5" style="stroke:#181818;stroke-width:0.5;" width="116.8818" x="380.56" y="164"/><ellipse cx="395.56" cy="180" fill="#B4A7E5" rx="11" ry="11" style="stroke:#181818;stroke-width:1;"/><path d="M391.4819,175.7656 L391.4819,173.6094 L398.8725,173.6094 L398.8725,175.7656 L396.4038,175.7656 L396.4038,183.8438 L398.8725,183.8438 L398.8725,186 L391.4819,186 L391.4819,183.8438 L393.9506,183.8438 L393.9506,175.7656 L391.4819,175.7656 Z " fill="#000000"/><text fill="#000000" font-family="sans-serif" font-size="14" font-style="italic" lengthAdjust="spacing" textLength="84.8818" x="409.56" y="184.8467">NoteService</text><line style="stroke:#181818;stroke-width:0.5;" x1="381.56" x2="496.4418" y1="196" y2="196"/><line style="stroke:#181818;stroke-width:0.5;" x1="381.56" x2="496.4418" y1="204" y2="204"/></g><!--class GroupRepository--><g class="entity" data-entity="GroupRepository" data-source-line="14" data-uid="ent0011" id="entity_GroupRepository"><rect fill="#F1F1F1" height="48" rx="2.5" ry="2.5" style="stroke:#181818;stroke-width:0.5;" width="150.002" x="22" y="287"/><ellipse cx="37" cy="303" fill="#B4A7E5" rx="11" ry="11" style="stroke:#181818;stroke-width:1;"/><path d="M32.9219,298.7656 L32.9219,296.6094 L40.3125,296.6094 L40.3125,298.7656 L37.8438,298.7656 L37.8438,306.8438 L40.3125,306.8438 L40.3125,309 L32.9219,309 L32.9219,306.8438 L35.3906,306.8438 L35.3906,298.7656 L32.9219,298.7656 Z " fill="#000000"/><text fill="#000000" font-family="sans-serif" font-size="14" font-style="italic" lengthAdjust="spacing" textLength="118.002" x="51" y="307.8467">GroupRepository</text><line style="stroke:#181818;stroke-width:0.5;" x1="23" x2="171.002" y1="319" y2="319"/><line style="stroke:#181818;stroke-width:0.5;" x1="23" x2="171.002" y1="327" y2="327"/></g><!--class StudentRepository--><g class="entity" data-entity="StudentRepository" data-source-line="15" data-uid="ent0012" id="entity_StudentRepository"><rect fill="#F1F1F1" height="48" rx="2.5" ry="2.5" style="stroke:#181818;stroke-width:0.5;" width="162.1836" x="206.91" y="287"/><ellipse cx="221.91" cy="303" fill="#B4A7E5" rx="11" ry="11" style="stroke:#181818;stroke-width:1;"/><path d="M217.8319,298.7656 L217.8319,296.6094 L225.2225,296.6094 L225.2225,298.7656 L222.7538,298.7656 L222.7538,306.8438 L225.2225,306.8438 L225.2225,309 L217.8319,309 L217.8319,306.8438 L220.3006,306.8438 L220.3006,298.7656 L217.8319,298.7656 Z " fill="#000000"/><text fill="#000000" font-family="sans-serif" font-size="14" font-style="italic" lengthAdjust="spacing" textLength="130.1836" x="235.91" y="307.8467">StudentRepository</text><line style="stroke:#181818;stroke-width:0.5;" x1="207.91" x2="368.0936" y1="319" y2="319"/><line style="stroke:#181818;stroke-width:0.5;" x1="207.91" x2="368.0936" y1="327" y2="327"/></g><!--class NoteRepository--><g class="entity" data-entity="NoteRepository" data-source-line="16" data-uid="ent0013" id="entity_NoteRepository"><rect fill="#F1F1F1" height="48" rx="2.5" ry="2.5" style="stroke:#181818;stroke-width:0.5;" width="140.2129" x="403.89" y="287"/><ellipse cx="418.89" cy="303" fill="#B4A7E5" rx="11" ry="11" style="stroke:#181818;stroke-width:1;"/><path d="M414.8119,298.7656 L414.8119,296.6094 L422.2025,296.6094 L422.2025,298.7656 L419.7338,298.7656 L419.7338,306.8438 L422.2025,306.8438 L422.2025,309 L414.8119,309 L414.8119,306.8438 L417.2806,306.8438 L417.2806,298.7656 L414.8119,298.7656 Z " fill="#000000"/><text fill="#000000" font-family="sans-serif" font-size="14" font-style="italic" lengthAdjust="spacing" textLength="108.2129" x="432.89" y="307.8467">NoteRepository</text><line style="stroke:#181818;stroke-width:0.5;" x1="404.89" x2="543.1029" y1="319" y2="319"/><line style="stroke:#181818;stroke-width:0.5;" x1="404.89" x2="543.1029" y1="327" y2="327"/></g><!--class Group--><g class="entity" data-entity="Group" data-source-line="20" data-uid="ent0015" id="entity_Group"><rect fill="#F1F1F1" height="48" rx="2.5" ry="2.5" style="stroke:#181818;stroke-width:0.5;" width="74.9297" x="134.54" y="410"/><ellipse cx="149.54" cy="426" fill="#ADD1B2" rx="11" ry="11" style="stroke:#181818;stroke-width:1;"/><path d="M152.5088,431.6406 Q151.9306,431.9375 151.29,432.0781 Q150.6494,432.2344 149.9463,432.2344 Q147.4463,432.2344 146.1181,430.5938 Q144.8056,428.9375 144.8056,425.8125 Q144.8056,422.6875 146.1181,421.0313 Q147.4463,419.375 149.9463,419.375 Q150.6494,419.375 151.29,419.5313 Q151.9463,419.6875 152.5088,419.9844 L152.5088,422.7031 Q151.8838,422.125 151.29,421.8594 Q150.6963,421.5781 150.0713,421.5781 Q148.7275,421.5781 148.04,422.6563 Q147.3525,423.7188 147.3525,425.8125 Q147.3525,427.9063 148.04,428.9844 Q148.7275,430.0469 150.0713,430.0469 Q150.6963,430.0469 151.29,429.7813 Q151.8838,429.5 152.5088,428.9219 L152.5088,431.6406 Z " fill="#000000"/><text fill="#000000" font-family="sans-serif" font-size="14" lengthAdjust="spacing" textLength="42.9297" x="163.54" y="430.8467">Group</text><line style="stroke:#181818;stroke-width:0.5;" x1="135.54" x2="208.4697" y1="442" y2="442"/><line style="stroke:#181818;stroke-width:0.5;" x1="135.54" x2="208.4697" y1="450" y2="450"/></g><!--class Student--><g class="entity" data-entity="Student" data-source-line="21" data-uid="ent0016" id="entity_Student"><rect fill="#F1F1F1" height="48" rx="2.5" ry="2.5" style="stroke:#181818;stroke-width:0.5;" width="87.1113" x="244.44" y="410"/><ellipse cx="259.44" cy="426" fill="#ADD1B2" rx="11" ry="11" style="stroke:#181818;stroke-width:1;"/><path d="M262.4088,431.6406 Q261.8306,431.9375 261.19,432.0781 Q260.5494,432.2344 259.8463,432.2344 Q257.3463,432.2344 256.0181,430.5938 Q254.7056,428.9375 254.7056,425.8125 Q254.7056,422.6875 256.0181,421.0313 Q257.3463,419.375 259.8463,419.375 Q260.5494,419.375 261.19,419.5313 Q261.8463,419.6875 262.4088,419.9844 L262.4088,422.7031 Q261.7838,422.125 261.19,421.8594 Q260.5963,421.5781 259.9713,421.5781 Q258.6275,421.5781 257.94,422.6563 Q257.2525,423.7188 257.2525,425.8125 Q257.2525,427.9063 257.94,428.9844 Q258.6275,430.0469 259.9713,430.0469 Q260.5963,430.0469 261.19,429.7813 Q261.7838,429.5 262.4088,428.9219 L262.4088,431.6406 Z " fill="#000000"/><text fill="#000000" font-family="sans-serif" font-size="14" lengthAdjust="spacing" textLength="55.1113" x="273.44" y="430.8467">Student</text><line style="stroke:#181818;stroke-width:0.5;" x1="245.44" x2="330.5513" y1="442" y2="442"/><line style="stroke:#181818;stroke-width:0.5;" x1="245.44" x2="330.5513" y1="450" y2="450"/></g><!--class Note--><g class="entity" data-entity="Note" data-source-line="22" data-uid="ent0017" id="entity_Note"><rect fill="#F1F1F1" height="48" rx="2.5" ry="2.5" style="stroke:#181818;stroke-width:0.5;" width="65.1406" x="366.43" y="410"/><ellipse cx="381.43" cy="426" fill="#ADD1B2" rx="11" ry="11" style="stroke:#181818;stroke-width:1;"/><path d="M384.3988,431.6406 Q383.8206,431.9375 383.18,432.0781 Q382.5394,432.2344 381.8363,432.2344 Q379.3363,432.2344 378.0081,430.5938 Q376.6956,428.9375 376.6956,425.8125 Q376.6956,422.6875 378.0081,421.0313 Q379.3363,419.375 381.8363,419.375 Q382.5394,419.375 383.18,419.5313 Q383.8363,419.6875 384.3988,419.9844 L384.3988,422.7031 Q383.7738,422.125 383.18,421.8594 Q382.5863,421.5781 381.9613,421.5781 Q380.6175,421.5781 379.93,422.6563 Q379.2425,423.7188 379.2425,425.8125 Q379.2425,427.9063 379.93,428.9844 Q380.6175,430.0469 381.9613,430.0469 Q382.5863,430.0469 383.18,429.7813 Q383.7738,429.5 384.3988,428.9219 L384.3988,431.6406 Z " fill="#000000"/><text fill="#000000" font-family="sans-serif" font-size="14" lengthAdjust="spacing" textLength="33.1406" x="395.43" y="430.8467">Note</text><line style="stroke:#181818;stroke-width:0.5;" x1="367.43" x2="430.5706" y1="442" y2="442"/><line style="stroke:#181818;stroke-width:0.5;" x1="367.43" x2="430.5706" y1="450" y2="450"/></g><!--class GroupOfferStatsResponse--><g class="entity" data-entity="GroupOfferStatsResponse" data-source-line="23" data-uid="ent0018" id="entity_GroupOfferStatsResponse"><rect fill="#F1F1F1" height="48" rx="2.5" ry="2.5" style="stroke:#181818;stroke-width:0.5;" width="213.7813" x="466.11" y="410"/><ellipse cx="481.11" cy="426" fill="#ADD1B2" rx="11" ry="11" style="stroke:#181818;stroke-width:1;"/><path d="M484.0788,431.6406 Q483.5006,431.9375 482.86,432.0781 Q482.2194,432.2344 481.5163,432.2344 Q479.0163,432.2344 477.6881,430.5938 Q476.3756,428.9375 476.3756,425.8125 Q476.3756,422.6875 477.6881,421.0313 Q479.0163,419.375 481.5163,419.375 Q482.2194,419.375 482.86,419.5313 Q483.5163,419.6875 484.0788,419.9844 L484.0788,422.7031 Q483.4538,422.125 482.86,421.8594 Q482.2663,421.5781 481.6413,421.5781 Q480.2975,421.5781 479.61,422.6563 Q478.9225,423.7188 478.9225,425.8125 Q478.9225,427.9063 479.61,428.9844 Q480.2975,430.0469 481.6413,430.0469 Q482.2663,430.0469 482.86,429.7813 Q483.4538,429.5 484.0788,428.9219 L484.0788,431.6406 Z " fill="#000000"/><text fill="#000000" font-family="sans-serif" font-size="14" lengthAdjust="spacing" textLength="181.7813" x="495.11" y="430.8467">GroupOfferStatsResponse</text><line style="stroke:#181818;stroke-width:0.5;" x1="467.11" x2="678.8913" y1="442" y2="442"/><line style="stroke:#181818;stroke-width:0.5;" x1="467.11" x2="678.8913" y1="450" y2="450"/></g><!--link GroupHandler to GroupService--><g class="link" data-entity-1="GroupHandler" data-entity-2="GroupService" data-source-line="26" data-uid="lnk19" id="link_GroupHandler_GroupService"><path codeLine="26" d="M105.58,89.33 C106.11,110.76 106.7414,136.3418 107.2714,157.7418" fill="none" id="GroupHandler-to-GroupService" style="stroke:#181818;stroke-width:1;"/><polygon fill="#181818" points="107.42,163.74,111.1959,154.6437,107.2962,158.7415,103.1984,154.8418,107.42,163.74" style="stroke:#181818;stroke-width:1;"/></g><!--link StudentHandler to StudentService--><g class="link" data-entity-1="StudentHandler" data-entity-2="StudentService" data-source-line="27" data-uid="lnk20" id="link_StudentHandler_StudentService"><path codeLine="27" d="M276,89.33 C276,110.76 276,136.34 276,157.74" fill="none" id="StudentHandler-to-StudentService" style="stroke:#181818;stroke-width:1;"/><polygon fill="#181818" points="276,163.74,280,154.74,276,158.74,272,154.74,276,163.74" style="stroke:#181818;stroke-width:1;"/></g><!--link NoteHandler to NoteService--><g class="link" data-entity-1="NoteHandler" data-entity-2="NoteService" data-source-line="28" data-uid="lnk21" id="link_NoteHandler_NoteService"><path codeLine="28" d="M441.42,89.33 C440.89,110.76 440.2586,136.3418 439.7286,157.7418" fill="none" id="NoteHandler-to-NoteService" style="stroke:#181818;stroke-width:1;"/><polygon fill="#181818" points="439.58,163.74,443.8016,154.8418,439.7038,158.7415,435.8041,154.6437,439.58,163.74" style="stroke:#181818;stroke-width:1;"/></g><!--link GroupService to GroupRepository--><g class="link" data-entity-1="GroupService" data-entity-2="GroupRepository" data-source-line="30" data-uid="lnk22" id="link_GroupService_GroupRepository"><path codeLine="30" d="M105.88,212.33 C103.93,233.76 101.6045,259.3648 99.6545,280.7648" fill="none" id="GroupService-to-GroupRepository" style="stroke:#181818;stroke-width:1;"/><polygon fill="#181818" points="99.11,286.74,103.9102,278.1401,99.5637,281.7606,95.9432,277.4142,99.11,286.74" style="stroke:#181818;stroke-width:1;"/></g><!--link GroupService to StudentRepository--><g class="link" data-entity-1="GroupService" data-entity-2="StudentRepository" data-source-line="31" data-uid="lnk23" id="link_GroupService_StudentRepository"><path codeLine="31" d="M142.72,212.27 C157.32,222.06 174.49,233.58 190,244 C211.11,258.19 229.7837,270.768 248.5637,283.418" fill="none" id="GroupService-to-StudentRepository" style="stroke:#181818;stroke-width:1;"/><polygon fill="#181818" points="253.54,286.77,248.3102,278.4244,249.393,283.9767,243.8408,285.0595,253.54,286.77" style="stroke:#181818;stroke-width:1;"/></g><!--link StudentService to StudentRepository--><g class="link" data-entity-1="StudentService" data-entity-2="StudentRepository" data-source-line="32" data-uid="lnk24" id="link_StudentService_StudentRepository"><path codeLine="32" d="M278.31,212.33 C280.44,233.76 282.9785,259.3692 285.0985,280.7692" fill="none" id="StudentService-to-StudentRepository" style="stroke:#181818;stroke-width:1;"/><polygon fill="#181818" points="285.69,286.74,288.7833,277.3895,285.1971,281.7644,280.8222,278.1782,285.69,286.74" style="stroke:#181818;stroke-width:1;"/></g><!--link StudentService to GroupRepository--><g class="link" data-entity-1="StudentService" data-entity-2="GroupRepository" data-source-line="33" data-uid="lnk25" id="link_StudentService_GroupRepository"><path codeLine="33" d="M238,212.35 C222.66,221.95 204.86,233.31 189,244 C168.62,257.73 151.0572,270.2538 133.4572,283.0938" fill="none" id="StudentService-to-GroupRepository" style="stroke:#181818;stroke-width:1;"/><polygon fill="#181818" points="128.61,286.63,138.2382,284.5571,132.6493,283.6831,133.5233,278.0942,128.61,286.63" style="stroke:#181818;stroke-width:1;"/></g><!--link NoteService to NoteRepository--><g class="link" data-entity-1="NoteService" data-entity-2="NoteRepository" data-source-line="34" data-uid="lnk26" id="link_NoteService_NoteRepository"><path codeLine="34" d="M445.75,212.33 C451.95,233.76 459.4128,259.5763 465.6028,280.9763" fill="none" id="NoteService-to-NoteRepository" style="stroke:#181818;stroke-width:1;"/><polygon fill="#181818" points="467.27,286.74,468.6117,276.983,465.8807,281.9369,460.9268,279.2059,467.27,286.74" style="stroke:#181818;stroke-width:1;"/></g><!--link NoteService to StudentRepository--><g class="link" data-entity-1="NoteService" data-entity-2="StudentRepository" data-source-line="35" data-uid="lnk27" id="link_NoteService_StudentRepository"><path codeLine="35" d="M409.89,212.33 C383.23,233.69 348.6725,261.3884 321.9625,282.7884" fill="none" id="NoteService-to-StudentRepository" style="stroke:#181818;stroke-width:1;"/><polygon fill="#181818" points="317.28,286.54,326.8048,284.0343,321.1821,283.4137,321.8027,277.791,317.28,286.54" style="stroke:#181818;stroke-width:1;"/></g><!--link GroupRepository to Group--><g class="link" data-entity-1="GroupRepository" data-entity-2="Group" data-source-line="37" data-uid="lnk28" id="link_GroupRepository_Group"><path codeLine="37" d="M111.46,335.33 C124.74,356.76 141.1597,383.2397 154.4197,404.6397" fill="none" id="GroupRepository-to-Group" style="stroke:#181818;stroke-width:1;"/><polygon fill="#181818" points="157.58,409.74,156.2398,399.9828,154.9464,405.4898,149.4394,404.1964,157.58,409.74" style="stroke:#181818;stroke-width:1;"/></g><!--link StudentRepository to Student--><g class="link" data-entity-1="StudentRepository" data-entity-2="Student" data-source-line="38" data-uid="lnk29" id="link_StudentRepository_Student"><path codeLine="38" d="M288,335.33 C288,356.76 288,382.34 288,403.74" fill="none" id="StudentRepository-to-Student" style="stroke:#181818;stroke-width:1;"/><polygon fill="#181818" points="288,409.74,292,400.74,288,404.74,284,400.74,288,409.74" style="stroke:#181818;stroke-width:1;"/></g><!--link NoteRepository to Note--><g class="link" data-entity-1="NoteRepository" data-entity-2="Note" data-source-line="39" data-uid="lnk30" id="link_NoteRepository_Note"><path codeLine="39" d="M459.54,335.33 C446.26,356.76 429.8403,383.2397 416.5803,404.6397" fill="none" id="NoteRepository-to-Note" style="stroke:#181818;stroke-width:1;"/><polygon fill="#181818" points="413.42,409.74,421.5606,404.1964,416.0536,405.4898,414.7602,399.9828,413.42,409.74" style="stroke:#181818;stroke-width:1;"/></g><!--SRC=[ZP51JiD034NtSmghgx3e5TZI5Q2c5p0J1qM4cP7j8274tQ5fatfcMiJM_-i_-pkXVyDNWeqo1acH5PhTuV1yju4l1-175847ZbFQOUX6udNOwjHHq7By69MMsRTpQSaNue_1aq3pCiaGIEIC688Iz-ZfX6bFlamuewv9HzmojpYc56NGo9_GTAW8wFrDvdurNyFUK8za8rduU-nebAh1ihgiizpwrFV4hQBAddw_4cI-plu1jjlxlB7y8RDU56T-CyksF6UpBk7cmifGzvFp_cygKMQnTT4_v9hXYiGBnLLc6-5oqWh_0G00]--></g></svg>